# This file uses centimeters as units for non-parametric coordinates.

mtllib Floor.mtl
g default
v -384.439168 -152.136733 54.697604
v 384.439168 -152.136733 54.697604
v -384.439168 -152.136733 -376.592594
v 384.439168 -152.136733 -376.592594
v 0.000000 -152.136733 54.697604
v 0.000000 -152.136733 -376.592594
v -192.219584 -152.136733 54.697604
v -192.219584 -152.136733 -376.592594
v 192.219584 -152.136733 54.697604
v 192.219584 -152.136733 -376.592594
v -384.439168 -152.136733 -160.947495
v -192.219584 -152.136733 -160.947495
v 0.000000 -152.136733 -160.947495
v 192.219584 -152.136733 -160.947495
v 384.439168 -152.136733 -160.947495
v -384.439168 -152.136733 -53.124945
v -192.219584 -152.136733 -53.124945
v 0.000000 -152.136733 -53.124945
v 192.219584 -152.136733 -53.124945
v 384.439168 -152.136733 -53.124945
v -384.439168 -152.136733 -268.770044
v -192.219584 -152.136733 -268.770044
v 0.000000 -152.136733 -268.770044
v 192.219584 -152.136733 -268.770044
v 384.439168 -152.136733 -268.770044
vt 0.017231 0.742908
vt 0.260453 0.742908
vt 0.260454 0.985818
vt 0.017231 0.985818
vt 0.017230 0.499998
vt 0.260453 0.499998
vt 0.503676 0.742908
vt 0.503676 0.985818
vt 0.017230 0.257088
vt 0.260452 0.257088
vt 0.503675 0.499998
vt 0.746898 0.742908
vt 0.746899 0.985818
vt 0.017229 0.014178
vt 0.260452 0.014178
vt 0.503675 0.257088
vt 0.746898 0.499998
vt 0.990121 0.742908
vt 0.990122 0.985818
vt 0.503675 0.014178
vt 0.746898 0.257088
vt 0.990121 0.499998
vt 0.746897 0.014178
vt 0.990120 0.257088
vt 0.990120 0.014178
vn 0.000000 1.000000 0.000000
vn 0.000000 1.000000 0.000000
vn 0.000000 1.000000 0.000000
vn 0.000000 1.000000 0.000000
vn 0.000000 1.000000 0.000000
vn 0.000000 1.000000 0.000000
vn 0.000000 1.000000 0.000000
vn 0.000000 1.000000 0.000000
vn 0.000000 1.000000 0.000000
vn 0.000000 1.000000 0.000000
vn 0.000000 1.000000 0.000000
vn 0.000000 1.000000 0.000000
vn 0.000000 1.000000 0.000000
vn 0.000000 1.000000 0.000000
vn 0.000000 1.000000 0.000000
vn 0.000000 1.000000 0.000000
vn 0.000000 1.000000 0.000000
vn 0.000000 1.000000 0.000000
vn 0.000000 1.000000 0.000000
vn 0.000000 1.000000 0.000000
vn 0.000000 1.000000 0.000000
vn 0.000000 1.000000 0.000000
vn 0.000000 1.000000 0.000000
vn 0.000000 1.000000 0.000000
vn 0.000000 1.000000 0.000000
s 1
g pCube10
usemtl aiStandardSurface19SG
f 21/1/1 22/2/2 8/3/3 3/4/4
f 6/8/5 23/7/6 24/12/7 10/13/8
f 8/3/3 22/2/2 23/7/6 6/8/5
f 10/13/8 24/12/7 25/18/9 4/19/10
f 16/9/11 17/10/12 12/6/13 11/5/14
f 13/11/15 12/6/13 17/10/12 18/16/16
f 14/17/17 13/11/15 18/16/16 19/21/18
f 15/22/19 14/17/17 19/21/18 20/24/20
f 1/14/21 7/15/22 17/10/12 16/9/11
f 18/16/16 17/10/12 7/15/22 5/20/23
f 19/21/18 18/16/16 5/20/23 9/23/24
f 20/24/20 19/21/18 9/23/24 2/25/25
f 11/5/14 12/6/13 22/2/2 21/1/1
f 23/7/6 22/2/2 12/6/13 13/11/15
f 24/12/7 23/7/6 13/11/15 14/17/17
f 25/18/9 24/12/7 14/17/17 15/22/19
