# This file uses centimeters as units for non-parametric coordinates.

mtllib onder aanrecht.mtl
g default
v -208.215158 -153.311030 48.773927
v 208.215158 -153.311030 48.773927
v -208.215158 11.286871 48.773927
v 208.215158 11.286871 48.773927
v -208.215158 11.286871 -48.773927
v 208.215158 11.286871 -48.773927
v -208.215158 -153.311030 -48.773927
v 208.215158 -153.311030 -48.773927
v 0.000000 11.286871 -48.773927
v 0.000000 -153.311030 -48.773927
v -104.107579 11.286871 -48.773927
v -104.107579 -153.311030 -48.773927
v 104.107579 11.286871 -48.773927
v 104.107579 -153.311030 -48.773927
v -208.215158 -71.012079 48.773927
v -208.215158 -71.012079 -48.773927
v -104.107579 -71.012079 -48.773927
v 0.000000 -71.012079 -48.773927
v 104.107579 -71.012079 -48.773927
v 208.215158 -71.012079 -48.773927
v 208.215158 -71.012079 48.773927
vt 0.399037 0.521255
vt 0.667780 0.521255
vt 0.667780 0.758590
vt 0.399037 0.758590
vt 0.667780 0.995926
vt 0.399037 0.995926
vt 0.088283 0.513991
vt 0.357026 0.513991
vt 0.357026 0.751326
vt 0.088283 0.751326
vt 0.357026 0.988662
vt 0.088283 0.988662
vt 0.050263 0.264015
vt 0.277773 0.264015
vt 0.277773 0.510392
vt 0.050263 0.510392
vt 0.050263 0.017639
vt 0.277773 0.017639
vt 0.505283 0.264015
vt 0.505283 0.510392
vt 0.505283 0.017639
vt 0.732792 0.264015
vt 0.732792 0.510392
vt 0.732792 0.017639
vt 0.960302 0.264015
vt 0.960302 0.510392
vt 0.960302 0.017639
vn 0.000000 0.000000 -1.000000
vn 0.000000 0.000000 -1.000000
vn 0.000000 0.000000 -1.000000
vn 0.000000 0.000000 -1.000000
vn 1.000000 0.000000 0.000000
vn 1.000000 0.000000 0.000000
vn 1.000000 0.000000 0.000000
vn 1.000000 0.000000 0.000000
vn -1.000000 0.000000 0.000000
vn -1.000000 0.000000 0.000000
vn -1.000000 0.000000 0.000000
vn -1.000000 0.000000 0.000000
vn 0.000000 0.000000 -1.000000
vn 0.000000 0.000000 -1.000000
vn 0.000000 0.000000 -1.000000
vn 0.000000 0.000000 -1.000000
vn 0.000000 0.000000 -1.000000
vn 0.000000 0.000000 -1.000000
vn -1.000000 0.000000 0.000000
vn -1.000000 0.000000 0.000000
vn 0.000000 0.000000 -1.000000
vn 0.000000 0.000000 -1.000000
vn 0.000000 0.000000 -1.000000
vn 0.000000 0.000000 -1.000000
vn 0.000000 0.000000 -1.000000
vn 1.000000 0.000000 0.000000
vn 1.000000 0.000000 0.000000
s 1
g pCube8
usemtl initialShadingGroup
f 16/13/1 17/14/2 12/15/3 7/16/4
s 2
f 2/1/5 8/2/6 20/3/7 21/4/8
s 3
f 7/7/9 1/8/10 15/9/11 16/10/12
s 1
f 10/20/13 18/19/14 19/22/15 14/23/16
f 12/15/3 17/14/2 18/19/14 10/20/13
f 14/23/16 19/22/15 20/25/17 8/26/18
s 3
f 16/10/12 15/9/11 3/11/19 5/12/20
s 1
f 5/17/21 11/18/22 17/14/2 16/13/1
f 18/19/14 17/14/2 11/18/22 9/21/23
f 19/22/15 18/19/14 9/21/23 13/24/24
f 20/25/17 19/22/15 13/24/24 6/27/25
s 2
f 21/4/8 20/3/7 6/5/26 4/6/27
